<?xml version="1.0" encoding="utf-8"?>
<!-- Generator: Adobe Illustrator 25.2.1, SVG Export Plug-In . SVG Version: 6.00 Build 0)  -->
<svg version="1.1" id="Capa_1" xmlns="http://www.w3.org/2000/svg" xmlns:xlink="http://www.w3.org/1999/xlink" x="0px" y="0px"
	 viewBox="0 0 1400 250" style="enable-background:new 0 0 1400 250;" xml:space="preserve">
<style type="text/css">
	.st0{fill:url(#SVGID_1_);}
	.st1{fill:url(#SVGID_2_);}
	.st2{fill:url(#SVGID_3_);}
	.st3{fill:url(#SVGID_4_);}
	.st4{fill:url(#SVGID_5_);}
	.st5{fill:url(#SVGID_6_);}
	.st6{fill:url(#SVGID_7_);}
	.st7{fill:url(#SVGID_8_);}
	.st8{fill:url(#SVGID_9_);}
</style>
<linearGradient id="SVGID_1_" gradientUnits="userSpaceOnUse" x1="1090.9834" y1="40.1938" x2="1241.3037" y2="40.1938">
	<stop  offset="0" style="stop-color:#208181"/>
	<stop  offset="1" style="stop-color:#2DAAA7"/>
</linearGradient>
<path class="st0" d="M1152.3,0c-14.5,25.3-36.6,59-61.3,80.4l90.9-0.7c18.5-18.3,39.4-47.3,59.4-79.7H1152.3z"/>
<linearGradient id="SVGID_2_" gradientUnits="userSpaceOnUse" x1="786.0333" y1="40.1938" x2="936.3536" y2="40.1938">
	<stop  offset="0" style="stop-color:#208181"/>
	<stop  offset="1" style="stop-color:#2DAAA7"/>
</linearGradient>
<path class="st1" d="M847.4,0c-14.5,25.3-36.6,59-61.3,80.4l90.9-0.7c18.5-18.3,39.4-47.3,59.4-79.7H847.4z"/>
<linearGradient id="SVGID_3_" gradientUnits="userSpaceOnUse" x1="481.0833" y1="40.1938" x2="631.4036" y2="40.1938">
	<stop  offset="0" style="stop-color:#208181"/>
	<stop  offset="1" style="stop-color:#2DAAA7"/>
</linearGradient>
<path class="st2" d="M542.4,0c-14.5,25.3-36.6,59-61.3,80.4l90.9-0.7c18.5-18.3,39.4-47.3,59.4-79.7H542.4z"/>
<linearGradient id="SVGID_4_" gradientUnits="userSpaceOnUse" x1="176.2971" y1="40.1938" x2="326.6174" y2="40.1938">
	<stop  offset="0" style="stop-color:#208181"/>
	<stop  offset="1" style="stop-color:#2DAAA7"/>
</linearGradient>
<path class="st3" d="M237.6,0c-14.5,25.3-36.6,59-61.3,80.4l90.9-0.7c18.5-18.3,39.4-47.3,59.4-79.7H237.6z"/>
<linearGradient id="SVGID_5_" gradientUnits="userSpaceOnUse" x1="1169.5328" y1="125" x2="1400.563" y2="125">
	<stop  offset="0" style="stop-color:#208181"/>
	<stop  offset="1" style="stop-color:#2DAAA7"/>
</linearGradient>
<path class="st4" d="M1340.3,250c-14.5-19.7-25.9-47.4-10.2-77.6c7.8-15.1,21.4-36,37.1-58.7c-15.4-0.2-30.8-0.4-46.3-0.7
	c4.3-9,38.4-78,79.7-113h-89.4c-54.1,52.6-128.9,195.2-141.7,250H1340.3z"/>
<linearGradient id="SVGID_6_" gradientUnits="userSpaceOnUse" x1="863.0759" y1="125" x2="1094.1061" y2="125">
	<stop  offset="0" style="stop-color:#208181"/>
	<stop  offset="1" style="stop-color:#2DAAA7"/>
</linearGradient>
<path class="st5" d="M1004.8,0c-54.1,52.6-128.9,195.2-141.7,250h170.7c-14.5-19.7-25.9-47.4-10.2-77.6c7.8-15.1,21.4-36,37.1-58.7
	c-15.4-0.2-30.8-0.4-46.3-0.7c4.3-9,38.4-78,79.7-113H1004.8z"/>
<linearGradient id="SVGID_7_" gradientUnits="userSpaceOnUse" x1="556.6191" y1="125" x2="779.6842" y2="125">
	<stop  offset="0" style="stop-color:#208181"/>
	<stop  offset="1" style="stop-color:#2DAAA7"/>
</linearGradient>
<path class="st6" d="M727.4,250c-14.5-19.7-25.9-47.4-10.2-77.6c7.8-15,21.3-35.9,37-58.6c-18-0.3-36.1-0.5-54.1-0.8
	c4.3-9,38.4-78,79.7-113h-81.4c-54.1,52.6-128.9,195.2-141.7,250H727.4z"/>
<linearGradient id="SVGID_8_" gradientUnits="userSpaceOnUse" x1="250.1623" y1="125" x2="481.1925" y2="125">
	<stop  offset="0" style="stop-color:#208181"/>
	<stop  offset="1" style="stop-color:#2DAAA7"/>
</linearGradient>
<path class="st7" d="M391.8,0c-54.1,52.6-128.9,195.2-141.7,250h170.7c-14.5-19.7-25.9-47.4-10.2-77.6c7.8-15.1,21.4-36,37.1-58.7
	c-15.4-0.2-30.8-0.4-46.3-0.7c4.3-9,38.4-78,79.7-113H391.8z"/>
<linearGradient id="SVGID_9_" gradientUnits="userSpaceOnUse" x1="0" y1="125" x2="176.2971" y2="125">
	<stop  offset="0" style="stop-color:#208181"/>
	<stop  offset="1" style="stop-color:#2DAAA7"/>
</linearGradient>
<path class="st8" d="M114.4,250c-14.5-19.7-25.9-47.4-10.2-77.6c7.8-15.1,21.4-36,37.1-58.7c-14.9-0.2-29.8-0.4-44.7-0.6
	c4.3-9,38.4-78,79.7-113H85.4C58.7,26,26.9,73.9,0,122.4V250H114.4z"/>
</svg>
